<?xml version="1.0" encoding="utf-8"?> <!-- Generator: IcoMoon.io --> <!DOCTYPE svg PUBLIC "-//W3C//DTD SVG 1.1//EN" "http://www.w3.org/Graphics/SVG/1.1/DTD/svg11.dtd"> <svg width="512" height="512" viewBox="0 0 512 512" xmlns="http://www.w3.org/2000/svg" xmlns:xlink="http://www.w3.org/1999/xlink" fill="#000000"><path d="M 256.00,0.00C 397.385,0.00, 512.00,114.615, 512.00,256.00s -114.615,256.00, -256.00,256.00s -256.00-114.615, -256.00-256.00S 114.615,0.00, 256.00,0.00z M 256.00,464.00 c 114.875,0.00 208.00-93.125 208.00-208.00S 370.875,48.00, 256.00,48.00s -208.00,93.125, -208.00,208.00S 141.125,464.00, 256.00,464.00zM 105.372,233.373l 128.001-128.00c 12.496-12.497 32.757-12.497 45.254,0.00c 12.497,12.497 12.497,32.758,0.00,45.255L 205.255,224.00 L 384.00,224.00 c 17.673,0.00 32.00,14.327 32.00,32.00c0.00,17.673, -14.327,32.00, -32.00,32.00l-178.745,0.00 l 73.373,73.372c 12.497,12.497 12.497,32.759,0.00,45.256 C 272.379,412.876, 264.189,416.00, 256.00,416.00s -16.379-3.124, -22.627-9.372l -128.001-128.00C 92.876,266.131, 92.876,245.869, 105.372,233.373z" ></path></svg>