<?xml version="1.0" encoding="utf-8"?> <!-- Generator: IcoMoon.io --> <!DOCTYPE svg PUBLIC "-//W3C//DTD SVG 1.1//EN" "http://www.w3.org/Graphics/SVG/1.1/DTD/svg11.dtd"> <svg width="512" height="512" viewBox="0 0 512 512" xmlns="http://www.w3.org/2000/svg" xmlns:xlink="http://www.w3.org/1999/xlink" fill="#000000"><path d="M 478.145,402.241L 320.00,138.729L 320.00,32.00 l 16.00,0.00 c 8.80,0.00, 16.00-7.20, 16.00-16.00s-7.20-16.00-16.00-16.00L 176.00,0.00 c-8.80,0.00-16.00,7.20-16.00,16.00s 7.20,16.00, 16.00,16.00l 16.00,0.00 l0.00,106.729 L 33.856,402.241C-2.365,462.608, 25.60,512.00, 96.00,512.00l 320.00,0.00 C 486.40,512.00, 514.365,462.608, 478.145,402.241z M 120.519,320.00L 224.00,147.531L 224.00,32.00 l 64.00,0.00 l0.00,115.531 L 391.482,320.00L 120.519,320.00 z" ></path></svg>