<?xml version="1.0" encoding="utf-8"?> <!-- Generator: IcoMoon.io --> <!DOCTYPE svg PUBLIC "-//W3C//DTD SVG 1.1//EN" "http://www.w3.org/Graphics/SVG/1.1/DTD/svg11.dtd"> <svg width="512" height="512" viewBox="0 0 512 512" xmlns="http://www.w3.org/2000/svg" xmlns:xlink="http://www.w3.org/1999/xlink" fill="#000000"><path d="M 437.011,74.99C 390.685,28.662, 326.693,0.00, 256.00,0.00C 146.256,0.00, 52.655,69.064, 16.251,166.094l 59.938,22.477 C 103.491,115.798, 173.692,64.00, 256.00,64.00c 53.02,0.00, 101.01,21.50, 135.753,56.247L 320.00,192.00l 192.00,0.00 L 512.00,0.00 L 437.011,74.99zM 256.00,448.00c-53.02,0.00-101.013-21.496-135.756-56.244L 192.00,320.00L0.00,320.00 l0.00,192.00 l 74.997-74.997C 121.32,483.334, 185.306,512.00, 256.00,512.00 c 109.745,0.00, 203.346-69.064, 239.75-166.094l-59.938-22.477C 408.51,396.202, 338.309,448.00, 256.00,448.00z" ></path></svg>