<?xml version="1.0" encoding="utf-8"?> <!-- Generator: IcoMoon.io --> <!DOCTYPE svg PUBLIC "-//W3C//DTD SVG 1.1//EN" "http://www.w3.org/Graphics/SVG/1.1/DTD/svg11.dtd"> <svg width="512" height="512" viewBox="0 0 512 512" xmlns="http://www.w3.org/2000/svg" xmlns:xlink="http://www.w3.org/1999/xlink" fill="#000000"><path d="M 368.00,0.00L 144.00,0.00 c-26.40,0.00-48.00,21.60-48.00,48.00l0.00,416.00 c0.00,26.40, 21.60,48.00, 48.00,48.00l 224.00,0.00 c 26.40,0.00, 48.00-21.60, 48.00-48.00L 416.00,48.00 C 416.00,21.60, 394.40,0.00, 368.00,0.00z M 192.00,24.00 l 128.00,0.00 l0.00,16.00 L 192.00,40.00 L 192.00,24.00 z M 256.00,480.00c-17.673,0.00-32.00-14.327-32.00-32.00s 14.327-32.00, 32.00-32.00s 32.00,14.327, 32.00,32.00S 273.673,480.00, 256.00,480.00z M 384.00,384.00L 128.00,384.00 L 128.00,64.00 l 256.00,0.00 L 384.00,384.00 z" ></path></svg>