<?xml version="1.0" encoding="utf-8"?> <!-- Generator: IcoMoon.io --> <!DOCTYPE svg PUBLIC "-//W3C//DTD SVG 1.1//EN" "http://www.w3.org/Graphics/SVG/1.1/DTD/svg11.dtd"> <svg width="512" height="512" viewBox="0 0 512 512" xmlns="http://www.w3.org/2000/svg" xmlns:xlink="http://www.w3.org/1999/xlink" fill="#000000"><path d="M 400.00,0.00L 80.00,0.00 C 53.60,0.00, 32.00,21.60, 32.00,48.00l0.00,416.00 c0.00,26.40, 21.60,48.00, 48.00,48.00l 320.00,0.00 c 26.40,0.00, 48.00-21.60, 48.00-48.00L 448.00,48.00 C 448.00,21.60, 426.40,0.00, 400.00,0.00z M 240.00,496.00 c-8.836,0.00-16.00-7.163-16.00-16.00s 7.164-16.00, 16.00-16.00s 16.00,7.163, 16.00,16.00S 248.836,496.00, 240.00,496.00z M 384.00,448.00L 96.00,448.00 L 96.00,64.00 l 288.00,0.00 L 384.00,448.00 z" ></path></svg>