<?xml version="1.0" encoding="utf-8"?> <!-- Generator: IcoMoon.io --> <!DOCTYPE svg PUBLIC "-//W3C//DTD SVG 1.1//EN" "http://www.w3.org/Graphics/SVG/1.1/DTD/svg11.dtd"> <svg width="512" height="512" viewBox="0 0 512 512" xmlns="http://www.w3.org/2000/svg" xmlns:xlink="http://www.w3.org/1999/xlink" fill="#000000"><path d="M 256.00,79.362 L 83.583,448.00 L 428.417,448.00 L 256.00,79.362 Z M 256.00,0.00 L 256.00,0.00 C 267.035,0.00 278.07,7.441 286.442,22.324 L 504.978,457.88 C 521.723,487.646 507.478,512.00 473.327,512.00 L 38.673,512.00 C 4.521,512.00 -9.722,487.646 7.021,457.88 L 225.558,22.324 C 233.93,7.441 244.965,0.00 256.00,0.00 ZM 256.00,192.00 C 273.673,192.00 288.00,206.327 288.00,224.00 L 278.00,320.00 L 234.00,320.00 L 224.00,224.00 C 224.00,206.327 238.327,192.00 256.00,192.00 Z" ></path><circle cx="256" cy="384" r="31" style="stroke:#000000; fill:#000000"/></svg>