<?xml version="1.0" encoding="utf-8"?> <!-- Generator: IcoMoon.io --> <!DOCTYPE svg PUBLIC "-//W3C//DTD SVG 1.1//EN" "http://www.w3.org/Graphics/SVG/1.1/DTD/svg11.dtd"> <svg width="512" height="512" viewBox="0 0 512 512" xmlns="http://www.w3.org/2000/svg" xmlns:xlink="http://www.w3.org/1999/xlink" fill="#000000"><g class="svgGrid" id="svgGrid"><line stroke-width="1" stroke="#B35047" x1="32" x2="32" y1="0" y2="512"></line><line stroke-width="1" stroke="#B35047" x1="64" x2="64" y1="0" y2="512"></line><line stroke-width="1" stroke="#B35047" x1="96" x2="96" y1="0" y2="512"></line><line stroke-width="1" stroke="#B35047" x1="128" x2="128" y1="0" y2="512"></line><line stroke-width="1" stroke="#B35047" x1="160" x2="160" y1="0" y2="512"></line><line stroke-width="1" stroke="#B35047" x1="192" x2="192" y1="0" y2="512"></line><line stroke-width="1" stroke="#B35047" x1="224" x2="224" y1="0" y2="512"></line><line stroke-width="1" stroke="#B35047" x1="256" x2="256" y1="0" y2="512"></line><line stroke-width="1" stroke="#B35047" x1="288" x2="288" y1="0" y2="512"></line><line stroke-width="1" stroke="#B35047" x1="320" x2="320" y1="0" y2="512"></line><line stroke-width="1" stroke="#B35047" x1="352" x2="352" y1="0" y2="512"></line><line stroke-width="1" stroke="#B35047" x1="384" x2="384" y1="0" y2="512"></line><line stroke-width="1" stroke="#B35047" x1="416" x2="416" y1="0" y2="512"></line><line stroke-width="1" stroke="#B35047" x1="448" x2="448" y1="0" y2="512"></line><line stroke-width="1" stroke="#B35047" x1="480" x2="480" y1="0" y2="512"></line><line stroke-width="1" stroke="#B35047" x1="0" x2="512" y1="32" y2="32"></line><line stroke-width="1" stroke="#B35047" x1="0" x2="512" y1="64" y2="64"></line><line stroke-width="1" stroke="#B35047" x1="0" x2="512" y1="96" y2="96"></line><line stroke-width="1" stroke="#B35047" x1="0" x2="512" y1="128" y2="128"></line><line stroke-width="1" stroke="#B35047" x1="0" x2="512" y1="160" y2="160"></line><line stroke-width="1" stroke="#B35047" x1="0" x2="512" y1="192" y2="192"></line><line stroke-width="1" stroke="#B35047" x1="0" x2="512" y1="224" y2="224"></line><line stroke-width="1" stroke="#B35047" x1="0" x2="512" y1="256" y2="256"></line><line stroke-width="1" stroke="#B35047" x1="0" x2="512" y1="288" y2="288"></line><line stroke-width="1" stroke="#B35047" x1="0" x2="512" y1="320" y2="320"></line><line stroke-width="1" stroke="#B35047" x1="0" x2="512" y1="352" y2="352"></line><line stroke-width="1" stroke="#B35047" x1="0" x2="512" y1="384" y2="384"></line><line stroke-width="1" stroke="#B35047" x1="0" x2="512" y1="416" y2="416"></line><line stroke-width="1" stroke="#B35047" x1="0" x2="512" y1="448" y2="448"></line><line stroke-width="1" stroke="#B35047" x1="0" x2="512" y1="480" y2="480"></line><rect x="0" y="0" width="512" height="512" fill="none" stroke-width="1" stroke="#B35047"></rect></g><path d="M 488.00,384.00l-8.00,0.00 L 480.00,280.00 c0.00-30.878-25.121-56.00-56.00-56.00L 288.00,224.00 l0.00-64.00 l 8.00,0.00 c 13.20,0.00, 24.00-10.80, 24.00-24.00L 320.00,56.00 c0.00-13.20-10.80-24.00-24.00-24.00l-80.00,0.00 c-13.20,0.00-24.00,10.80-24.00,24.00l0.00,80.00 c0.00,13.20, 10.80,24.00, 24.00,24.00l 8.00,0.00 l0.00,64.00 L 88.00,224.00 c-30.878,0.00-56.00,25.122-56.00,56.00l0.00,104.00 l-8.00,0.00 c-13.20,0.00-24.00,10.80-24.00,24.00l0.00,80.00 c0.00,13.20, 10.80,24.00, 24.00,24.00l 80.00,0.00 c 13.20,0.00, 24.00-10.80, 24.00-24.00l0.00-80.00 c0.00-13.20-10.80-24.00-24.00-24.00l-8.00,0.00 l0.00-96.00 l 128.00,0.00 l0.00,96.00 l-8.00,0.00 c-13.20,0.00-24.00,10.80-24.00,24.00l0.00,80.00 c0.00,13.20, 10.80,24.00, 24.00,24.00l 80.00,0.00 c 13.20,0.00, 24.00-10.80, 24.00-24.00l0.00-80.00 c0.00-13.20-10.80-24.00-24.00-24.00l-8.00,0.00 l0.00-96.00 l 128.00,0.00 l0.00,96.00 l-8.00,0.00 c-13.20,0.00-24.00,10.80-24.00,24.00l0.00,80.00 c0.00,13.20, 10.80,24.00, 24.00,24.00l 80.00,0.00 c 13.20,0.00, 24.00-10.80, 24.00-24.00l0.00-80.00 C 512.00,394.80, 501.20,384.00, 488.00,384.00z M 96.00,480.00L 32.00,480.00 l0.00-64.00 l 64.00,0.00 L 96.00,480.00 z M 288.00,480.00l-64.00,0.00 l0.00-64.00 l 64.00,0.00 L 288.00,480.00 z M 224.00,128.00L 224.00,64.00 l 64.00,0.00 l0.00,64.00 L 224.00,128.00 z M 480.00,480.00l-64.00,0.00 l0.00-64.00 l 64.00,0.00 L 480.00,480.00 z" ></path></svg>